<svg viewBox="0 0 64 64" fill="none" width="32" height="32" xmlns="http://www.w3.org/2000/svg" xmlns:xlink="http://www.w3.org/1999/xlink">
    <style>
        :root, .palette0 {color: currentColor;
            --color0: #2e2f42;
            --color1: #4d5ae5;
            --color2: #f4f4fd;
        }
    </style>
    <g fill="var(--color1, #4d5ae5)" clip-path="url(#Diagram_clip0_1004689_1305)">
        <path d="M29.851 29.9292h2.1323v9.595H29.851z" />
        <path d="M38.3799 34.1936h2.1322v5.3306h-2.1322z" />
        <path d="M21.3222 37.392h2.1322v2.1322h-2.1322z" />
        <path d="M14.9255 36.3258h2.1322v3.1983h-2.1322z" />
        <path fill="var(--color0, #2e2f42)" d="M3.1983 56.5819h51.1732c1.7663 0 3.1984-1.432 3.1984-3.1983v-4.2644c0-1.7663-1.4321-3.1983-3.1984-3.1983h-1.0661V19.3343l6.0557-5.7366c1.4055 0.6928 3.1067 0.2722 4.0265-0.9974 0.9204-1.2691 0.7913-3.0167-0.305-4.1369S60.2424 7.176 58.953 8.0678c-1.2889 0.8922-1.747 2.5835-1.0849 4.0041l-4.5627 4.3254v-2.4597c0-1.7663-1.432-3.1983-3.1983-3.1983H7.4628c-1.7663 0-3.1984 1.432-3.1984 3.1983l0 31.9833H3.1983C1.4321 45.9209 0 47.3529 0 49.1192v4.2644c0 1.7663 1.4321 3.1983 3.1983 3.1983zM60.7682 9.6732c0.5887 0 1.0661 0.4773 1.0661 1.0661 0 0.5887-0.4774 1.0661-1.0661 1.0661-0.5888 0-1.0661-0.4774-1.0661-1.0661 0-0.5888 0.4773-1.0661 1.0661-1.0661zM6.3967 13.9376c0-0.5887 0.4773-1.0661 1.0661-1.0661h42.6443c0.5887 0 1.0661 0.4774 1.0661 1.0661v4.4773L49.041 20.441v-4.3712c0-0.5887-0.4774-1.0661-1.0661-1.0661H9.595c-0.5888 0-1.0661 0.4774-1.0661 1.0661l0 26.6527c0 0.5888 0.4773 1.0661 1.0661 1.0661h38.3799c0.5887 0 1.0661-0.4773 1.0661-1.0661V23.3738l2.1322-2.0203v24.5674H6.3967zM15.9916 27.797c-1.4424-41e-4-2.709 0.9568-3.0926 2.3472-0.3837 1.3904 0.2103 2.8652 1.4508 3.6013 1.24 0.736 2.8199 0.5512 3.8563-0.4519l3.7059 1.8595c0.4305 0.2155 0.9526 0.1145 1.2727-0.2452l7.8777-8.8626 7.7438 5.8027c0.4154 0.3113 0.9954 0.278 1.3722-0.0786l6.7304-6.3753v16.2623H10.6611V17.1359h36.2477v5.3207l-7.543 7.1431-7.8089-5.8542c-0.4435-0.3321-1.0677-0.2697-1.4362 0.1442l-7.9859 8.9854-2.9855-1.493c0.0219-0.128 0.0354-0.2571 0.0407-0.3868 0-1.7662-1.4321-3.1983-3.1984-3.1983zM17.0577 30.9953c0 0.5888-0.4773 1.0662-1.0661 1.0662-0.5887 0-1.0661-0.4774-1.0661-1.0662 0-0.5887 0.4774-1.0661 1.0661-1.0661 0.5888 0 1.0661 0.4774 1.0661 1.0661zM23.4544 48.0531h10.6611v1.0661c0 0.5887-0.4774 1.0661-1.0661 1.0661h-8.5289c-0.5888 0-1.0661-0.4774-1.0661-1.0661zM2.1322 49.1192c0-0.5888 0.4774-1.0661 1.0661-1.0661h18.1239v1.0661c0 1.7663 1.432 3.1983 3.1983 3.1983h8.5289c1.7662 0 3.1983-1.432 3.1983-3.1983v-1.0661h18.1238c0.5888 0 1.0661 0.4773 1.0661 1.0661v4.2644c0 0.5888-0.4773 1.0661-1.0661 1.0661H3.1983c-0.5887 0-1.0661-0.4773-1.0661-1.0661z" />
    </g>
    <defs>
        <clipPath id="Diagram_clip0_1004689_1305">
            <rect fill="#fff" width="64" height="64" />
        </clipPath>
    </defs>
</svg>