<svg viewBox="0 0 40 40" fill="none" width="32" height="32" xmlns="http://www.w3.org/2000/svg" xmlns:xlink="http://www.w3.org/1999/xlink">
    <style>
        :root, .palette0 {color: currentColor;
            --color0: #2e2f42;
            --color1: #4d5ae5;
            --color2: #f4f4fd;
        }
    </style>
    <path fill="var(--color1, #4d5ae5)" d="M40 20c0 5.5228-2.2386 10.5228-5.8579 14.1421S25.5228 40 20 40 9.4772 37.7614 5.8579 34.1421C2.2386 30.5228 0 25.5228 0 20S2.2386 9.4772 5.8579 5.8579C9.4772 2.2386 14.4772 0 20 0s10.5228 2.2386 14.1421 5.8579C37.7614 9.4772 40 14.4772 40 20z" />
    <g fill="var(--color2, #f4f4fd)" clip-path="url(#Instagram_clip0_1074755_398)">
        <path d="M27.9843 16.704c-0.0375-0.8501-0.175-1.4346-0.3719-1.941-0.2032-0.5376-0.5157-1.0189-0.9252-1.419-0.4001-0.4063-0.8846-0.7221-1.4159-0.922-0.5094-0.197-1.0908-0.3345-1.941-0.3719C22.4738 12.0094 22.2019 12 20.0296 12s-2.4442 94e-4-3.2975 0.0469c-0.8501 0.0375-1.4346 0.1751-1.9409 0.3719-0.5377 0.2031-1.019 0.5157-1.4191 0.9252-0.4063 0.4001-0.722 0.8846-0.9221 1.4159-0.1969 0.5095-0.3344 1.0908-0.3719 1.941-0.0406 0.8565-0.05 1.1284-0.05 3.3007s94e-4 2.4442 0.0469 3.2975c0.0374 0.8501 0.175 1.4346 0.372 1.941 0.2031 0.5376 0.5188 1.0189 0.9251 1.419 0.4001 0.4063 0.8846 0.7221 1.4159 0.9221 0.5095 0.1969 1.0908 0.3344 1.9411 0.3719C17.5823 27.9907 17.8543 28 20.0266 28s2.4442-93e-4 3.2975-0.0469c0.8501-0.0375 1.4346-0.175 1.9409-0.3719 1.0753-0.4158 1.9254-1.2659 2.3412-2.3411 0.1968-0.5095 0.3344-1.0909 0.3719-1.941 0.0375-0.8533 0.0469-1.1252 0.0469-3.2975s-32e-4-2.4442-0.0407-3.2976zM26.5435 23.2366c-0.0345 0.7814-0.1657 1.2033-0.2751 1.4846-0.2689 0.6971-0.8221 1.2503-1.5191 1.5191-0.2813 0.1094-0.7063 0.2407-1.4847 0.275-0.8439 0.0376-1.097 0.0469-3.2318 0.0469s-2.3911-93e-4-3.2319-0.0469c-0.7814-0.0343-1.2034-0.1656-1.4847-0.275-0.3469-0.1282-0.6626-0.3313-0.9189-0.597-0.2657-0.2595-0.4688-0.572-0.597-0.9189-0.1094-0.2813-0.2407-0.7064-0.275-1.4847-0.0376-0.8439-0.0469-1.0971-0.0469-3.2319s93e-4-2.3911 0.0469-3.2318c0.0343-0.7814 0.1656-1.2034 0.275-1.4847 0.1282-0.347 0.3313-0.6626 0.6002-0.919 0.2593-0.2657 0.5719-0.4689 0.9189-0.5969 0.2813-0.1094 0.7064-0.2407 1.4846-0.2751 0.8439-0.0375 1.0972-0.0469 3.2319-0.0469 2.1379 0 2.391 94e-4 3.2319 0.0469 0.7814 0.0344 1.2034 0.1657 1.4847 0.2751 0.3468 0.128 0.6626 0.3312 0.9189 0.5969 0.2656 0.2594 0.4688 0.572 0.597 0.919 0.1094 0.2813 0.2406 0.7063 0.2751 1.4847 0.0375 0.8439 0.0469 1.097 0.0469 3.2318s-94e-4 2.3849-0.0469 3.2288z" />
        <path d="M20.0297 15.8914c-2.2691 0-4.1102 1.8409-4.1102 4.1101 0 2.2693 1.8411 4.1102 4.1102 4.1102 2.2692 0 4.1101-1.8409 4.1101-4.1102 0-2.2692-1.8409-4.1101-4.1101-4.1101zM20.0297 22.6677c-1.4721 0-2.6662-1.194-2.6662-2.6662s1.1941-2.6661 2.6662-2.6661c1.4722 0 2.6661 1.1939 2.6661 2.6661s-1.1939 2.6662-2.6661 2.6662z" />
        <path d="M25.262 15.7289c0 0.5299-0.4296 0.9595-0.9596 0.9595-0.5299 0-0.9596-0.4296-0.9596-0.9595 0-0.53 0.4297-0.9596 0.9596-0.9596 0.53 0 0.9596 0.4296 0.9596 0.9596z" />
    </g>
    <defs>
        <clipPath id="Instagram_clip0_1074755_398">
            <rect fill="#fff" transform="translate(12 12)" width="16" height="16" />
        </clipPath>
    </defs>
</svg>