<svg viewBox="0 0 40 40" fill="none" width="32" height="32" xmlns="http://www.w3.org/2000/svg" xmlns:xlink="http://www.w3.org/1999/xlink">
    <style>
        :root, .palette0 {color: currentColor;
            --color0: #2e2f42;
            --color1: #4d5ae5;
            --color2: #f4f4fd;
        }
    </style>
    <path fill="var(--color1, #4d5ae5)" d="M40 20c0 5.5228-2.2386 10.5228-5.8579 14.1421S25.5228 40 20 40 9.4772 37.7614 5.8579 34.1421C2.2386 30.5228 0 25.5228 0 20S2.2386 9.4772 5.8579 5.8579C9.4772 2.2386 14.4772 0 20 0s10.5228 2.2386 14.1421 5.8579C37.7614 9.4772 40 14.4772 40 20z" />
    <g fill="var(--color2, #f4f4fd)" clip-path="url(#Linkedin_clip0_1074755_414)">
        <path d="M27.9961 28v-6e-4h4e-3v-5.868c0-2.8707-0.618-5.082-3.974-5.082-1.6133 0-2.696 0.8853-3.138 1.7246h-0.0467v-1.4566h-3.182v10.682h3.3134V22.71c0-1.3926 0.264-2.7393 1.9886-2.7393 1.6994 0 1.7247 1.5893 1.7247 2.8287V28z" />
        <path d="M12.264 17.318h3.3174V28H12.264z" />
        <path d="M13.9214 12c-1.0607 0-1.9213 0.8607-1.9213 1.9213 0 1.0607 0.8606 1.9394 1.9213 1.9394s1.9213-0.8787 1.9213-1.9394C15.8421 12.8607 14.9814 12 13.9214 12z" />
    </g>
    <defs>
        <clipPath id="Linkedin_clip0_1074755_414">
            <rect fill="#fff" transform="translate(12.0001 12)" width="16" height="16" />
        </clipPath>
    </defs>
</svg>